<?xml version="1.0" encoding="utf-8"?>
<!-- Generator: Adobe Illustrator 21.0.2, SVG Export Plug-In . SVG Version: 6.00 Build 0)  -->
<svg version="1.1" id="Layer_1" xmlns="http://www.w3.org/2000/svg" xmlns:xlink="http://www.w3.org/1999/xlink" x="0px" y="0px"
	 viewBox="0 0 173.6 48.5" style="enable-background:new 0 0 173.6 48.5;" xml:space="preserve">
<style type="text/css">
	.st0{fill:#333333;}
	.st1{fill:#70BF44;}
	.st2{fill:#5E5F5F;}
</style>
<g>
	<polygon class="st0" points="18,41.5 21.9,41.5 21.9,42.1 18.7,42.1 18.7,44.3 21.9,44.3 21.9,45 18.7,45 18.7,47.7 21.9,47.7 
		21.9,48.4 18,48.4 	"/>
	<polygon class="st0" points="28.1,42.1 28.1,41.5 31.9,41.5 31.9,42.1 30.3,42.1 30.3,48.4 29.6,48.4 29.6,42.1 	"/>
	<polygon class="st0" points="38.5,41.5 42.4,41.5 42.4,42.1 39.2,42.1 39.2,44.3 42.4,44.3 42.4,45 39.2,45 39.2,47.7 42.4,47.7 
		42.4,48.4 38.5,48.4 	"/>
	<polygon class="st0" points="49.3,41.5 49.9,41.5 49.9,47.7 52.6,47.7 52.6,48.4 49.3,48.4 	"/>
	<polygon class="st0" points="59.3,41.5 60,41.5 60,47.7 62.7,47.7 62.7,48.4 59.3,48.4 	"/>
	<rect x="69.3" y="41.5" class="st0" width="0.7" height="6.9"/>
	<polygon class="st0" points="77.2,48.4 77.2,41.5 77.3,41.5 81.9,46.7 81.9,41.5 82.6,41.5 82.6,48.4 82.4,48.4 77.9,43.1 
		77.9,48.4 	"/>
	<path class="st0" d="M96.6,42.6L96,43.1c-0.4-0.4-0.8-0.7-1.3-0.9c-0.5-0.2-0.9-0.3-1.3-0.3c-0.5,0-1.1,0.1-1.6,0.4
		c-0.5,0.3-0.9,0.6-1.1,1.1c-0.3,0.5-0.4,0.9-0.4,1.4c0,0.5,0.1,1,0.4,1.5s0.7,0.8,1.2,1.1c0.5,0.3,1,0.4,1.6,0.4
		c0.7,0,1.3-0.2,1.8-0.6c0.5-0.4,0.8-0.9,0.9-1.6H94V45h3c0,1.1-0.3,1.9-0.9,2.5s-1.5,0.9-2.5,0.9c-1.3,0-2.3-0.4-3-1.3
		c-0.6-0.7-0.9-1.4-0.9-2.3c0-0.7,0.2-1.3,0.5-1.8c0.3-0.6,0.8-1,1.3-1.3s1.2-0.5,1.9-0.5c0.6,0,1.1,0.1,1.7,0.3
		S96.1,42.2,96.6,42.6"/>
	<path class="st0" d="M112.9,42.1v2.3l1.2,0c0.5,0,0.8,0,1-0.1c0.2-0.1,0.4-0.2,0.5-0.4c0.1-0.2,0.2-0.4,0.2-0.7
		c0-0.2-0.1-0.4-0.2-0.6c-0.1-0.2-0.3-0.3-0.5-0.4c-0.2-0.1-0.5-0.1-1-0.1C114.1,42.1,112.9,42.1,112.9,42.1z M112.2,41.5h1.4
		c0.8,0,1.3,0,1.6,0.1c0.4,0.1,0.7,0.3,1,0.6c0.3,0.3,0.4,0.7,0.4,1.1c0,0.4-0.1,0.7-0.3,1c-0.2,0.3-0.4,0.5-0.8,0.7
		s-0.8,0.2-1.4,0.2l2.5,3.2h-0.8l-2.5-3.2h-0.4v3.2h-0.7V41.5z"/>
	<path class="st0" d="M8.2,42.1v2.3l1.2,0c0.5,0,0.8,0,1-0.1c0.2-0.1,0.4-0.2,0.5-0.4c0.1-0.2,0.2-0.4,0.2-0.7
		c0-0.2-0.1-0.4-0.2-0.6c-0.1-0.2-0.3-0.3-0.5-0.4c-0.2-0.1-0.5-0.1-1-0.1C9.4,42.1,8.2,42.1,8.2,42.1z M7.5,41.5h1.4
		c0.8,0,1.3,0,1.6,0.1c0.4,0.1,0.7,0.3,1,0.6c0.3,0.3,0.4,0.7,0.4,1.1c0,0.4-0.1,0.7-0.3,1c-0.2,0.3-0.4,0.5-0.8,0.7
		s-0.8,0.2-1.4,0.2l2.5,3.2h-0.8l-2.5-3.2H8.2v3.2H7.5V41.5z"/>
	<polygon class="st0" points="123.7,41.5 127.6,41.5 127.6,42.1 124.3,42.1 124.3,44.3 127.6,44.3 127.6,45 124.3,45 124.3,47.7 
		127.6,47.7 127.6,48.4 123.7,48.4 	"/>
	<polygon class="st0" points="133.7,42.1 133.7,41.5 137.5,41.5 137.5,42.1 136,42.1 136,48.4 135.3,48.4 135.3,42.1 	"/>
	<path class="st0" d="M146.9,42.9l-1.2,2.5h2.4L146.9,42.9z M147,41.5l3.2,6.9h-0.8l-1.1-2.3h-3l-1.1,2.3h-0.8l3.3-6.9H147z"/>
	<rect x="156.8" y="41.5" class="st0" width="0.7" height="6.9"/>
	<polygon class="st0" points="164.7,41.5 165.4,41.5 165.4,47.7 168,47.7 168,48.4 164.7,48.4 	"/>
	<path class="st1" d="M27.6,22.6H13.7v-5.7h21.6v0.7c0,4.6-1.7,8.5-5.2,11.8c-3.5,3.3-7.6,5-12.3,5c-4.9,0-9.1-1.7-12.6-5
		S0,22,0,17.2c0-4.7,1.7-8.8,5.2-12.1C8.7,1.7,12.8,0,17.6,0c3.5,0,6.8,1,9.8,3s5.1,4.4,6.1,7.4h-7.3c-2-3.1-5-4.7-8.8-4.7
		c-3.2,0-5.9,1.1-8.1,3.3c-2.2,2.2-3.3,5-3.3,8.2c0,3.2,1.1,5.9,3.4,8.1c2.2,2.2,5,3.3,8.3,3.3c2.1,0,4-0.5,5.8-1.6
		S26.6,24.5,27.6,22.6"/>
	<rect x="40.6" y="2.9" class="st0" width="5.7" height="30.9"/>
	<polygon class="st0" points="58.9,33.7 53.1,33.7 53.1,2.9 59.7,2.9 72.5,25.3 72.5,2.9 78.2,2.9 78.2,33.7 71.8,33.7 58.9,11.4 	
		"/>
	<polygon class="st0" points="101.6,33.7 85,33.7 85,2.9 101.6,2.9 101.6,8.2 90.8,8.2 90.8,15.8 101.2,15.8 101.2,21.1 90.8,21.1 
		90.8,28.4 101.6,28.4 	"/>
	<path class="st0" d="M115.5,34.3c-2.8,0-5.1-0.9-7-2.7s-2.9-4-3-6.8h6c0,1.2,0.4,2.2,1.2,3c0.8,0.8,1.8,1.1,3,1.1
		c1.2,0,2.2-0.4,3-1.1c0.8-0.7,1.2-1.7,1.2-2.8c0-2-1.4-3.5-4.2-4.5c-2.2-0.8-3.7-1.4-4.4-1.8c-0.7-0.4-1.4-0.9-2.1-1.5
		c-1.7-1.7-2.6-3.8-2.6-6.3c0-2.4,0.9-4.5,2.7-6.2c1.8-1.7,3.9-2.6,6.4-2.6c2.5,0,4.7,0.8,6.4,2.5s2.6,3.8,2.8,6.3h-5.9
		c-0.2-2.3-1.3-3.5-3.4-3.5c-1,0-1.7,0.3-2.3,0.9c-0.6,0.6-0.9,1.3-0.9,2.3c0,1,0.3,1.8,1,2.4c0.7,0.6,2.1,1.2,4.2,1.9
		c2.4,0.8,4.2,1.8,5.3,2.8c1.8,1.7,2.8,3.9,2.8,6.5c0,2.8-1,5.1-2.9,7.1C120.7,33.4,118.3,34.3,115.5,34.3"/>
	<path class="st0" d="M163.6,34.3c-2.8,0-5.1-0.9-7-2.7s-2.9-4-3-6.8h6c0,1.2,0.4,2.2,1.2,3c0.8,0.8,1.8,1.1,3,1.1
		c1.2,0,2.2-0.4,3-1.1c0.8-0.7,1.2-1.7,1.2-2.8c0-2-1.4-3.5-4.2-4.5c-2.2-0.8-3.7-1.4-4.4-1.8c-0.7-0.4-1.4-0.9-2.1-1.5
		c-1.7-1.7-2.6-3.8-2.6-6.3c0-2.4,0.9-4.5,2.7-6.2s3.9-2.6,6.4-2.6c2.5,0,4.6,0.8,6.4,2.5s2.6,3.8,2.8,6.3h-5.9
		c-0.2-2.3-1.3-3.5-3.4-3.5c-1,0-1.7,0.3-2.3,0.9c-0.6,0.6-0.9,1.3-0.9,2.3c0,1,0.3,1.8,1,2.4c0.7,0.6,2.1,1.2,4.2,1.9
		c2.4,0.8,4.2,1.8,5.3,2.8c1.9,1.7,2.8,3.9,2.8,6.5c0,2.8-1,5.1-2.9,7.1C168.7,33.4,166.4,34.3,163.6,34.3"/>
	<polygon points="33.6,10.4 26.3,10.4 13.7,16.9 23,16.9 	"/>
	<path class="st2" d="M33.6,10.4h-7.3H33.6z M23,16.9h-9.3v5.7L23,16.9z"/>
	<polygon class="st0" points="142.6,33.7 136.9,33.7 136.9,22.4 126.7,2.9 133,2.9 139.7,17.1 146.5,2.9 152.8,2.9 142.6,22.4 	"/>
</g>
<text transform="matrix(1 0 0 1 80.6566 477.6801)" style="fill:#FFFFFF; font-family:'GothamBook'; font-size:22px;">GINE</text>
<text transform="matrix(1 0 0 1 125.4266 477.6801)" style="fill:#FFFFFF; font-family:'GothamBook'; font-size:22px;">S</text>
<text transform="matrix(1 0 0 1 135.6366 477.6801)" style="fill:#FFFFFF; font-family:'GothamBook'; font-size:22px;">Y</text>
<text transform="matrix(1 0 0 1 146.7866 477.6801)" style="fill:#FFFFFF; font-family:'GothamBook'; font-size:22px;">S</text>
<text transform="matrix(1 0 0 1 179.8758 477.6801)" style="fill:#FFFFFF; font-family:'GothamBook'; font-size:42px;"> </text>
<text transform="matrix(1 0 0 1 80.6566 507.6801)" style="fill:#FFFFFF; font-family:'GothamMedium'; font-size:26px;">Retelling Retail</text>
<text transform="matrix(1 0 0 1 280.4632 507.6801)" style="fill:#FFFFFF; font-family:'GothamMedium'; font-size:26px;"> </text>
<text transform="matrix(1 0 0 1 80.6566 533.6801)" style="fill:#FFFFFF; font-family:'GothamMedium'; font-size:26px;">Through Software</text>
<text transform="matrix(1 0 0 1 388.9183 806.8988)" style="font-family:'CenturyGothic-Bold'; font-size:16px;">www.ginesys.in</text>
</svg>
